<?xml version="1.0" standalone="no"?><!DOCTYPE svg PUBLIC "-//W3C//DTD SVG 1.1//EN" "http://www.w3.org/Graphics/SVG/1.1/DTD/svg11.dtd"><svg t="1559988862563" class="icon" style="" viewBox="0 0 1024 1024" version="1.1" xmlns="http://www.w3.org/2000/svg" p-id="15268" xmlns:xlink="http://www.w3.org/1999/xlink" width="200" height="200"><defs><style type="text/css"></style></defs><path d="M427.5 665.2c-30.6 54.3-9.4 96.7 33 122.7 42.5 23.6 92 21.2 122.6-33 30.6-54.3 226.5-530.7 209.9-542.5-16.5-7.1-332.5 400.8-365.5 452.8m84.9-339.7c18.8 0 37.7 2.4 56.6 4.8 18.8-23.6 42.4-51.9 63.7-77.8-37.8-11.8-77.9-16.6-120.3-16.6-252.4 0-448.2 212.2-448.2 483.5 0 16.6 0 33 2.4 49.6 2.4 23.5 23.6 42.4 49.6 40 23.6-2.4 42.4-23.6 40-49.6-2.4-14.2-2.4-28.3-2.4-42.4 0.1-219.3 158.1-391.5 358.6-391.5m323.1 56.6c-11.8 33-26 68.4-37.8 96.7 44.8 66 73.1 148.6 73.1 238.3 0 14.1 0 28.2-2.4 42.4-2.4 23.6 16.6 47.2 40.1 49.6h4.8c23.6 0 42.4-16.6 44.8-40.1 2.4-16.6 2.4-33 2.4-49.6 0-134.4-47.2-252.4-125-337.3" p-id="15269"></path></svg>