<?xml version="1.0" standalone="no"?><!DOCTYPE svg PUBLIC "-//W3C//DTD SVG 1.1//EN" "http://www.w3.org/Graphics/SVG/1.1/DTD/svg11.dtd"><svg t="1559988976874" class="icon" style="" viewBox="0 0 1303 1024" version="1.1" xmlns="http://www.w3.org/2000/svg" p-id="16868" xmlns:xlink="http://www.w3.org/1999/xlink" width="254.4921875" height="200"><defs><style type="text/css"></style></defs><path d="M1303.247678 651.621046c0 126.50721-34.070375 243.612487-102.583477 351.222741a44.030839 44.030839 0 0 1-39.19024 21.131079H141.783026a44.310105 44.310105 0 0 1-39.19024-21.131079A640.44857 640.44857 0 0 1 0.009309 651.621046c0-88.154767 17.221364-172.585995 51.571004-253.01442 34.442728-80.428425 80.800779-149.779324 138.981063-207.959609A653.480954 653.480954 0 0 1 398.427896 51.665954 638.02827 638.02827 0 0 1 651.628494 0.001862c88.247855 0 172.585995 17.128276 253.200597 51.664092a653.480954 653.480954 0 0 1 207.86652 138.887975 652.550069 652.550069 0 0 1 138.981063 207.959608c34.34964 80.521514 51.571004 164.952742 51.571004 253.014421H1303.247678z m-233.558933-326.088857a89.551094 89.551094 0 0 0-27.274917-65.720449 89.551094 89.551094 0 0 0-65.72045-27.274918 89.737271 89.737271 0 0 0-65.720449 27.274918 89.551094 89.551094 0 0 0-27.274917 65.720449c0 25.599325 9.122669 47.5682 27.274917 65.720449a89.737271 89.737271 0 0 0 65.720449 27.274917 89.551094 89.551094 0 0 0 65.72045-27.274917 89.737271 89.737271 0 0 0 27.274917-65.720449zM744.158418 185.992595a89.737271 89.737271 0 0 0-27.274917-65.720449 89.737271 89.737271 0 0 0-65.72045-27.274918 89.644182 89.644182 0 0 0-65.813537 27.274918 89.644182 89.644182 0 0 0-27.181829 65.720449c0 25.692414 9.02958 47.661289 27.181829 65.813537 18.152249 18.05916 40.028036 27.181829 65.813537 27.181829a90.016536 90.016536 0 0 0 65.72045-27.181829 89.737271 89.737271 0 0 0 27.274917-65.813537z m465.069921 465.069921a89.737271 89.737271 0 0 0-27.274918-65.72045 89.737271 89.737271 0 0 0-65.720449-27.274917 89.737271 89.737271 0 0 0-65.813537 27.274917 90.016536 90.016536 0 0 0-27.181829 65.72045c0 25.692414 9.122669 47.661289 27.181829 65.813537a90.016536 90.016536 0 0 0 65.813537 27.181829 90.016536 90.016536 0 0 0 65.720449-27.181829 89.737271 89.737271 0 0 0 27.274918-65.813537z m-479.59172 24.016821l73.353702-277.682861a46.171874 46.171874 0 0 0-5.492218-35.187436 45.613343 45.613343 0 0 0-28.019625-21.410345 43.006866 43.006866 0 0 0-34.815083 4.747512 45.613343 45.613343 0 0 0-21.782698 28.671244l-73.446791 277.589772a137.584736 137.584736 0 0 0-77.72886 31.650075 135.53679 135.53679 0 0 0-45.706431 71.585022c-9.774288 37.32847-4.933688 72.608995 14.521799 106.120838 19.362399 33.325667 47.754377 54.922188 84.989759 64.603388 37.235382 9.774288 72.608995 4.933688 106.120839-14.521799 33.418755-19.362399 55.015277-47.754377 64.696476-84.989759a134.047375 134.047375 0 0 0-4.468246-84.98976 138.981063 138.981063 0 0 0-52.222623-66.185891zM418.628091 325.532189a89.551094 89.551094 0 0 0-27.274917-65.720449 89.737271 89.737271 0 0 0-65.72045-27.274918 89.644182 89.644182 0 0 0-65.813537 27.274918 89.17874 89.17874 0 0 0-27.274917 65.720449 89.364917 89.364917 0 0 0 27.274917 65.720449c18.152249 18.152249 40.028036 27.274917 65.813537 27.274917a89.737271 89.737271 0 0 0 65.72045-27.274917 89.737271 89.737271 0 0 0 27.274917-65.720449zM279.088497 651.062516a89.737271 89.737271 0 0 0-27.274917-65.72045 89.737271 89.737271 0 0 0-65.720449-27.274917 89.644182 89.644182 0 0 0-65.813538 27.274917 89.644182 89.644182 0 0 0-27.181829 65.72045c0 25.692414 9.02958 47.661289 27.181829 65.813537 18.152249 18.05916 40.028036 27.181829 65.813538 27.181829a90.016536 90.016536 0 0 0 65.720449-27.181829 89.737271 89.737271 0 0 0 27.274917-65.813537z" p-id="16869"></path></svg>