<?xml version="1.0" standalone="no"?><!DOCTYPE svg PUBLIC "-//W3C//DTD SVG 1.1//EN" "http://www.w3.org/Graphics/SVG/1.1/DTD/svg11.dtd"><svg t="1564673378457" class="icon" viewBox="0 0 1024 1024" version="1.1" xmlns="http://www.w3.org/2000/svg" p-id="9695" xmlns:xlink="http://www.w3.org/1999/xlink" width="200" height="200"><defs><style type="text/css"></style></defs><path d="M522.386286 229.010286v504.100571H697.051429l-203.629715 174.518857-203.629714-174.518857h174.518857V501.613714l-173.348571 173.348572L116.370286 500.297143H270.628571c-6.436571-37.449143-23.990857-128.658286-55.442285-209.481143a326.802286 326.802286 0 0 0-46.445715-70.729143c-15.798857 8.045714-33.645714 12.580571-52.443428 12.580572C52.370286 232.740571 0 180.370286 0 116.297143S52.370286 0 116.297143 0c64.073143 0 116.443429 52.370286 116.443428 116.297143 0 25.088-8.045714 48.347429-21.650285 67.437714 22.235429 26.185143 42.934857 58.002286 56.539428 89.746286 34.084571 92.452571 51.858286 193.097143 60.196572 226.889143h136.411428V228.937143a116.809143 116.809143 0 0 1-87.259428-112.64C376.978286 52.370286 429.348571 0 493.275429 0c64.073143 0 116.443429 52.370286 116.443428 116.297143 0 54.052571-37.302857 99.693714-87.332571 112.713143z m146.797714 271.36c3.949714-33.060571 17.846857-130.925714 51.053714-221.110857 17.188571-34.377143 35.620571-64.219429 58.514286-92.891429a115.638857 115.638857 0 0 1-23.625143-69.997714C755.126857 52.370286 807.497143 0 871.497143 0s116.370286 52.370286 116.370286 116.297143c0 64.073143-52.370286 116.443429-116.297143 116.443428-16.969143 0-33.133714-3.657143-47.689143-10.24-17.042286 22.820571-34.084571 45.714286-45.494857 74.24-31.378286 76.288-45.494857 166.4-50.322286 203.629715h143.433143L697.051429 674.889143 522.386286 500.370286H669.257143zM729.380571 1024H263.899429a233.398857 233.398857 0 0 1-232.740572-232.740571V500.370286h58.221714v290.889143c0 98.889143 75.629714 174.592 174.518858 174.592h465.481142c98.889143 0 174.518857-75.702857 174.518858-174.592V500.370286h58.221714v290.889143A233.398857 233.398857 0 0 1 729.380571 1024zM116.297143 174.518857c34.889143 0 58.148571-23.259429 58.148571-58.148571 0-34.889143-23.259429-58.221714-58.148571-58.221715-34.889143 0-58.221714 23.332571-58.221714 58.221715 0 34.889143 23.332571 58.148571 58.221714 58.148571z m376.978286 0c34.889143 0 58.148571-23.259429 58.148571-58.148571 0-34.889143-23.259429-58.221714-58.148571-58.221715-34.962286 0-58.221714 23.332571-58.221715 58.221715 0 34.889143 23.259429 58.148571 58.221715 58.148571z m378.148571 0c34.889143 0 58.221714-23.259429 58.221714-58.148571 0-34.889143-23.332571-58.221714-58.221714-58.221715-34.889143 0-58.148571 23.332571-58.148571 58.221715 0 34.889143 23.259429 58.148571 58.148571 58.148571z" p-id="9696"></path></svg>