<?xml version="1.0" standalone="no"?><!DOCTYPE svg PUBLIC "-//W3C//DTD SVG 1.1//EN" "http://www.w3.org/Graphics/SVG/1.1/DTD/svg11.dtd"><svg t="1559988326766" class="icon" style="" viewBox="0 0 1024 1024" version="1.1" xmlns="http://www.w3.org/2000/svg" p-id="7627" xmlns:xlink="http://www.w3.org/1999/xlink" width="200" height="200"><defs><style type="text/css"></style></defs><path d="M880.593875 563.64660938c46.4709375 39.18860156 74.04180469 86.99132812 82.68426562 143.43651562 8.614125 56.47352344-3.68367188 110.22679688-36.86505468 161.4015-35.19323437 49.13451562-80.87076563 80.19070312-136.97592188 93.14022656-56.10515625 12.94952344-110.73684375 4.81710938-163.86672656-24.42557812a26.63578125 26.63578125 0 0 1-9.97425 1.98351562H197.21607031c-31.22620312-0.65172656-57.12525-11.1076875-77.72547656-31.36788281-20.57189062-20.26019531-31.53789844-45.64919531-32.8696875-76.22367188V196.07282813c1.33178906-30.54614062 12.29779687-55.93514063 32.8696875-76.22367188C140.09082031 99.61729687 166.01820313 89.16133594 197.21607031 88.48127344h468.19469531l215.18310938 215.18310937v260.0105625z m-97.61730469-276.95545313l-129.49523437-129.49523438v59.78882813c0.65172656 19.92016406 7.62236719 36.4966875 20.88358593 49.78624219 13.31789063 13.28955469 29.89441406 19.92016406 49.81457813 19.92016406h58.79707031z m-43.83569531 623.6173125a166.50196875 166.50196875 0 0 0 84.66778125-22.38539063 165.93525 165.93525 0 0 0 61.77234375-62.28239062c15.27307031-26.57910937 22.8954375-54.80170312 22.8954375-84.66778125 0-29.89441406-7.65070312-58.28702344-22.8954375-85.17782813a164.91515625 164.91515625 0 0 0-61.77234375-62.76410156 166.50196875 166.50196875 0 0 0-84.66778125-22.41372656c-48.48278906 1.33178906-88.69148438 17.93664844-120.54107813 49.81457812-31.87792969 31.87792969-48.48278906 72.05828906-49.81457812 120.54107813 1.33178906 47.80272656 17.93664844 87.64305469 49.81457812 119.52098437s72.05828906 48.48278906 120.54107813 49.81457813z m84.66778125-379.53154688v-187.30054687h-99.62915625c-35.84496094-0.65172656-65.739375-12.94952344-89.65490625-36.83671875-23.91553125-23.91553125-36.52502344-53.80994531-37.8568125-89.68324219v-71.68992187H197.21607031c-15.30140625 0.65172656-27.91089844 5.78053125-37.8568125 15.41475-9.97425 9.63421875-15.30140625 21.42196875-15.95313281 35.36325v635.57507812c0.6800625 13.94128125 5.97888281 25.72903125 15.95313281 35.36325 9.94591406 9.63421875 22.58374219 14.76302344 37.8568125 15.44308594h364.59850782c-32.55799219-41.85217969-49.16285156-87.84140625-49.81457813-137.99601562-0.65172656-50.12627344 14.2813125-96.45553125 44.82745312-138.9594375 31.87792969-41.82384375 72.05828906-69.56472656 120.54107813-83.16597657 48.45445313-13.60125 97.30560938-10.79599219 146.440125 8.47244532z m-55.9918125 201.63853126v96.73889062a28.3359375 28.3359375 0 0 1-56.671875 0v-96.73889063l-31.73625 31.79292188a28.3359375 28.3359375 0 1 1-40.09535156-40.09535156l80.13403125-80.13403125a28.3359375 28.3359375 0 0 1 40.09535156 0l80.13403125 80.13403125a28.3359375 28.3359375 0 1 1-40.06701563 40.09535156l-31.79292187-31.79292188zM256.9765625 286.69115625h282.906c8.64246094 0.6800625 15.61310156 3.68367188 20.94025781 8.98249219a27.03248437 27.03248437 0 0 1 7.9340625 19.92016406 27.03248437 27.03248437 0 0 1-7.9340625 19.92016406c-5.32715625 5.32715625-12.29779687 7.96239844-20.94025781 7.96239844H256.9765625a27.03248437 27.03248437 0 0 1-19.92016406-7.96239844 27.03248437 27.03248437 0 0 1-7.96239844-19.92016406c0-7.96239844 2.63524219-14.62134375 7.9340625-19.92016406 5.32715625-5.32715625 11.98610156-8.30242969 19.9485-8.98249219z m0 142.47309375h282.906c8.64246094 0 15.61310156 2.63524219 20.94025781 7.96239844a27.03248437 27.03248437 0 0 1 7.9340625 19.92016406 27.03248437 27.03248437 0 0 1-7.9340625 19.92016406c-5.32715625 5.32715625-12.29779687 8.30242969-20.94025781 8.98249219H256.9765625a30.85783594 30.85783594 0 0 1-19.92016406-8.98249219 27.03248437 27.03248437 0 0 1-7.96239844-19.92016406c0-7.96239844 2.63524219-14.62134375 7.9340625-19.92016406A27.03248437 27.03248437 0 0 1 256.9765625 429.16425z m0 141.453h170.35565625c7.96239844 0 14.59300781 2.66357812 19.92016406 7.96239844a27.03248437 27.03248437 0 0 1 7.96239844 19.92016406 27.03248437 27.03248437 0 0 1-7.96239844 19.92016406 30.85783594 30.85783594 0 0 1-19.92016406 8.98249219H256.9765625a30.85783594 30.85783594 0 0 1-19.92016406-8.98249219 27.03248437 27.03248437 0 0 1-7.96239844-19.92016406c0-7.96239844 2.63524219-14.59300781 7.9340625-19.92016406A27.03248437 27.03248437 0 0 1 256.9765625 570.61725z" p-id="7628"></path></svg>