<?xml version="1.0" standalone="no"?><!DOCTYPE svg PUBLIC "-//W3C//DTD SVG 1.1//EN" "http://www.w3.org/Graphics/SVG/1.1/DTD/svg11.dtd"><svg t="1564663686384" class="icon" viewBox="0 0 1024 1024" version="1.1" xmlns="http://www.w3.org/2000/svg" p-id="1226" xmlns:xlink="http://www.w3.org/1999/xlink" width="200" height="200"><defs><style type="text/css"></style></defs><path d="M673.8176 445.32224h227.456c25.26208 0 45.9264 20.3264 45.9264 45.1584v406.44096c0 24.832-20.66432 45.1584-45.9264 45.1584h-275.54304a46.25408 46.25408 0 0 1-13.89568-2.1248H122.7264c-25.25696 0-45.92128-20.3264-45.92128-45.1584V127.0784c0-24.832 20.66432-45.1584 45.9264-45.1584h505.1648c25.25696 0 45.9264 20.3264 45.9264 45.1584v318.24384z m-390.35904 291.41504h183.69536v-90.3168H283.45856v90.3168z m0-180.63872h183.69536v-90.3168H283.45856v90.3168z m0-180.63872h183.69536v-90.3168H283.45856v90.3168z m388.736 362.07104h143.7184v-90.3168h-143.7184v90.3168z" p-id="1227"></path></svg>