<?xml version="1.0" standalone="no"?><!DOCTYPE svg PUBLIC "-//W3C//DTD SVG 1.1//EN" "http://www.w3.org/Graphics/SVG/1.1/DTD/svg11.dtd"><svg t="1559994034453" class="icon" style="" viewBox="0 0 1024 1024" version="1.1" xmlns="http://www.w3.org/2000/svg" p-id="2783" xmlns:xlink="http://www.w3.org/1999/xlink" width="200" height="200"><defs><style type="text/css"></style></defs><path d="M512 622.08l487.424-281.088c13.312-6.656 20.48-19.968 20.48-33.28v-26.624l-487.424-274.432-20.48-6.656-487.424 274.432c-13.312 6.656-20.48 19.968-20.48 33.28v26.624l487.424 281.088 20.48 6.656z m0-541.696l413.184 234.496-413.184 234.496-413.184-234.496 413.184-234.496z m-494.592 461.824l494.592 281.088 494.592-274.432c20.48-13.312 20.48-33.28 13.312-47.104-13.312-19.968-33.792-19.968-47.616-13.312l-460.288 261.12-460.288-267.776c-20.48-6.656-40.448 0-47.616 13.312-6.656 19.968-6.656 39.936 13.312 47.104z m954.88 146.944l-460.288 261.12-460.288-267.776c-20.48-6.656-40.448 0-47.616 13.312-6.656 19.968 0 39.936 13.312 47.104l494.592 281.088 494.592-274.432c20.48-13.312 20.48-33.28 13.312-47.104-13.312-19.968-33.792-19.968-47.616-13.312z" p-id="2784"></path></svg>