<?xml version="1.0" standalone="no"?><!DOCTYPE svg PUBLIC "-//W3C//DTD SVG 1.1//EN" "http://www.w3.org/Graphics/SVG/1.1/DTD/svg11.dtd"><svg t="1559988689905" class="icon" style="" viewBox="0 0 1024 1024" version="1.1" xmlns="http://www.w3.org/2000/svg" p-id="11232" xmlns:xlink="http://www.w3.org/1999/xlink" width="200" height="200"><defs><style type="text/css"></style></defs><path d="M370.2 548.6c0-0.2-0.2-0.2-0.2-0.4 0 0.2 0.2 0.4 0.2 0.4zM653.6 548.4l0.4-0.4c-0.2 0-0.4 0.2-0.4 0.4z" fill="" p-id="11233"></path><path d="M618.6 939.4c-18.4 4-37-3-48.6-17.6-14.6-19.4-27.2-39.8-36-62.4-6.8-17.6-3-38 9.6-51.6 24.4-26.2 24.4-68.2 0-95.4-12.6-13.6-16.4-34-9.6-51.6 8.8-22.4 21.4-43.8 36-62.4 11.8-14.6 31.2-21.4 49.8-17.6 10.8 2.4 21.6 2.2 32-0.4-2.6-4.2-4.2-9.2-4.2-14.6 0-6.8 2.4-13.2 6.8-18l-0.4 0.4c0-0.2 0.2-0.4 0.4-0.4 18.8-22.4 35-48.2 48.4-76.2 17-7.4 33.2-22 45.4-42 22.4-38 19.6-80.6-6.4-95.2-1-0.4-1.4-0.4-2.4-1v-4h1V216c0-75.6-59.4-198-262.4-182-102.6 8-187 66.6-192.8 168l-0.8 14v113.8h1v4c-1 0.4-1.4 0.4-2.4 1-25.8 14.6-28.8 57.2-6.4 95.2 11.8 20 28.4 34.6 45.4 42 13.2 28.4 29.8 54.2 48.8 76.6h-0.2c3.8 4.8 6.6 11 6.6 17.6 0 13.2-9.2 24-21.4 26.8-65.8 10.8-129.8 27.8-190.8 51.2C102 672 57.6 735.4 57.6 809.2v84.4c0 54.6 36.2 64 85.4 79.2 84.8 19.4 363.4 24.6 559.4 16.4-0.2-0.8-0.6-1.4-0.8-2.2-11-35-47.2-55.4-83-47.6z" fill="" p-id="11234"></path><path d="M989 670.2c5.8 15.2 2.6 32.6-8.4 44.4-21 22.6-21 58.6 0 82 10.8 11.8 14.2 29.2 8.4 44.4-7.6 19.2-18.4 37.6-31 53.6-10 12.6-26.8 18.4-41.8 15.2-15.2-3.4-30.2-0.8-43.4 6.6-13.4 7.6-22.6 20-27.6 34.2-5 15.8-18.4 26.8-34.2 29.2-10 0.8-21 1.6-31 1.6s-21-0.8-31-2.6c-15.8-2.6-29.2-13.4-34.2-29.2-9.2-30.2-40.2-47.6-71-41-15.8 3.4-31.8-2.6-41.8-15.2-12.6-16.8-23.4-34.2-31-53.6-5.8-15.2-2.6-32.6 8.4-44.4 21-22.6 21-58.6 0-82-10.8-11.8-14.2-29.2-8.4-44.2 7.6-19.2 18.4-37.6 31-53.6 10-12.6 26.8-18.4 42.8-15.2 15.2 3.4 30.2 0.8 43.4-6.6 13.4-7.6 22.6-20 27.6-34.2 5-15.8 18.4-26.8 34.2-29.2 20-2.6 41-2.6 61.8 0 15.8 2.6 29.2 13.4 34.2 29.2 4.2 14.2 14.2 26.8 27.6 34.2 13.4 7.6 28.4 10 43.4 6.6 15.8-3.4 32.6 2.6 41.8 15.2 11.8 17.8 22.6 35.4 30.2 54.6z m-31 12.6c-6.6-15.8-15.8-31.8-26.8-45.2-1.6-2.6-5-3.4-8.4-2.6-22.6 5-46.8 1.6-67-10-21-11.8-36-31-42.8-53.6-0.8-3.4-3.4-5.8-6.6-5.8-17.6-2.6-35.2-2.6-52.6 0-3.4 0.8-5.8 2.6-6.6 5.8-6.6 22.6-21.8 41.8-42.8 53.6-20 11.8-44.4 15.2-67.8 10-3.4-0.8-6.6 0.8-8.4 2.6-11 14.2-20.2 29.4-26.8 45.2-0.8 3.4-0.8 6.6 1.6 9.2 32.6 36 32.6 91.2 0 127.2-2.6 2.6-2.6 5.8-1.6 8.4 6.6 16.8 15.8 31.8 26 45.2 1.6 2.6 5.8 3.4 8.4 3.4 47.6-10.8 95.4 17.6 110.4 63.6 0.8 3.4 3.4 5 6.6 5.8 8.4 0.8 17.6 1.6 26 1.6 9.2 0 17.6-0.8 26.8-1.6 3.4-0.8 5.8-2.6 6.6-5.8 6.6-22.6 21.8-41.8 42.8-53.6 20-11.8 44.4-15.2 67.8-10 3.4 0.8 6.6-0.8 8.4-2.6 10.8-14.2 20-29.2 26.8-45.2 0.8-2.6 0.8-6.6-1.6-9.2-32.6-36-32.6-91.2 0-127.2 2.6-2.6 2.6-6 1.6-9.2z m-181.6 156.4c-46 0-83.6-37.6-83.6-83.6s37.6-83.6 83.6-83.6 83.6 37.6 83.6 83.6-36.6 83.6-83.6 83.6z" fill="" p-id="11235"></path></svg>