<?xml version="1.0" standalone="no"?><!DOCTYPE svg PUBLIC "-//W3C//DTD SVG 1.1//EN" "http://www.w3.org/Graphics/SVG/1.1/DTD/svg11.dtd"><svg t="1559988683031" class="icon" style="" viewBox="0 0 1175 1024" version="1.1" xmlns="http://www.w3.org/2000/svg" p-id="11122" xmlns:xlink="http://www.w3.org/1999/xlink" width="229.4921875" height="200"><defs><style type="text/css"></style></defs><path d="M1161.777228 870.902633c2.26965 0 2.26965 2.298021 4.5393 2.298021a17.778927 17.778927 0 0 1 9.078601 9.163713v11.47119a32.824817 32.824817 0 0 1-4.5393 13.759755 50.121443 50.121443 0 0 1-6.808951 11.461734 9.513617 9.513617 0 0 1-9.078601 6.875149 13.513876 13.513876 0 0 1-9.078601 2.298021 8.274767 8.274767 0 0 1-6.808951-2.298021c-2.26965 0-6.808951-2.288564-9.078601-2.288564h-11.348251a97.585504 97.585504 0 0 0-11.348252 2.288564c-4.539301 2.298021-6.714382 4.596042-11.253682 6.884606a43.851534 43.851534 0 0 0-11.348251 22.932924 38.045013 38.045013 0 0 0 4.5393 22.932925 14.232599 14.232599 0 0 1-2.26965 16.076689l-6.808951 6.875149a49.516203 49.516203 0 0 1-11.348251 6.884606c-4.539301 2.288564-9.078601 2.288564-13.617902 4.586585a97.585504 97.585504 0 0 0-11.348251 2.288564 8.29368 8.29368 0 0 1-6.808951-2.288564 12.171 12.171 0 0 1-4.5393-6.884606 33.401686 33.401686 0 0 0-13.617902-20.634904 33.940728 33.940728 0 0 0-24.966153-9.173169 37.600539 37.600539 0 0 0-24.966153 9.173169 125.852107 125.852107 0 0 0-15.887552 20.634904 19.386596 19.386596 0 0 1-6.80895 6.884606c0 2.288564-2.26965 2.288564-6.808951 2.288564a20.31337 20.31337 0 0 1-11.348251-2.288564c-4.539301-2.298021-9.078601-2.298021-13.617902-4.586585a49.516203 49.516203 0 0 1-11.348251-6.884606 30.753761 30.753761 0 0 1-8.984033-6.875149 8.511188 8.511188 0 0 1-2.26965-6.875149 25.164747 25.164747 0 0 1 2.26965-11.47119 33.335488 33.335488 0 0 0 2.269651-20.634904 34.319003 34.319003 0 0 0-9.078601-20.644361 19.575734 19.575734 0 0 0-13.617902-6.875149 33.278747 33.278747 0 0 0-15.887552-2.29802c-4.539301 0-11.348251 2.298021-15.887552 2.29802h-11.348251a90.067288 90.067288 0 0 1-9.078601-6.884605l-6.808951-13.750298a32.824817 32.824817 0 0 1-4.5393-13.759755 19.339312 19.339312 0 0 1 0-11.471191 10.601158 10.601158 0 0 1 6.80895-11.461733 47.700483 47.700483 0 0 0 24.966153-16.07669 33.099066 33.099066 0 0 0 9.078601-22.932924 26.725132 26.725132 0 0 0-9.078601-22.932925 41.969616 41.969616 0 0 0-20.426852-16.076689l-6.808951-6.884606a13.901608 13.901608 0 0 1-2.26965-9.17317 25.15529 25.15529 0 0 1 2.26965-11.461734 17.637074 17.637074 0 0 1 4.539301-11.47119c2.26965-4.586585 4.539301-6.875149 6.808951-11.461734a12.152086 12.152086 0 0 1 4.5393-6.875149 11.234769 11.234769 0 0 1 13.617902 0 38.858304 38.858304 0 0 0 22.696502 2.288564 43.019329 43.019329 0 0 0 22.696503-11.471191 50.121443 50.121443 0 0 0 6.808951-11.461734 30.498425 30.498425 0 0 0 2.175081-13.759754v-18.34634a4.671697 4.671697 0 0 0-2.175081-4.586585v-4.577128a67.14382 67.14382 0 0 1 8.984032-13.759755l13.617902-6.884605c4.539301-2.288564 9.078601-2.288564 13.617901-4.586585h11.348251a8.274767 8.274767 0 0 1 6.808951 2.298021c2.26965 2.288564 2.26965 4.586585 4.539301 6.875149a41.250894 41.250894 0 0 0 13.617901 20.634903 40.097155 40.097155 0 0 0 22.696503 9.17317 45.393005 45.393005 0 0 0 24.966153-6.875149 49.903935 49.903935 0 0 0 15.887552-20.634904 12.171 12.171 0 0 1 4.5393-6.884605 6.364478 6.364478 0 0 1 6.808951-4.586585 20.247172 20.247172 0 0 1 11.348251 2.298021 31.964241 31.964241 0 0 1 13.617902 4.586585 49.52566 49.52566 0 0 1 11.348251 6.875149 31.689992 31.689992 0 0 1 6.808951 9.173169 8.511188 8.511188 0 0 1 2.26965 6.875149c0 2.298021 0 4.586585-2.26965 4.586585a40.030956 40.030956 0 0 0-2.26965 22.932925 43.851534 43.851534 0 0 0 11.348251 22.932924 42.470831 42.470831 0 0 0 22.601934 11.471191 44.494602 44.494602 0 0 0 24.966153-4.586585 8.274767 8.274767 0 0 1 6.80895-2.298021 12.038603 12.038603 0 0 1 6.808951 4.586585 97.216686 97.216686 0 0 1 11.348252 16.076689c2.26965 6.884606 4.539301 16.076689 6.80895 22.932925a20.890239 20.890239 0 0 1-2.26965 11.471191 12.038603 12.038603 0 0 1-6.808951 4.586584 28.900213 28.900213 0 0 0-20.426852 16.07669 34.697278 34.697278 0 0 0-9.078601 25.221488 39.019071 39.019071 0 0 0 6.808951 22.932925 35.378173 35.378173 0 0 0 18.157202 13.731384z m-90.691442-73.375902a115.232035 115.232035 0 0 0-18.157202-27.519509 81.499358 81.499358 0 0 0-27.235803-18.34634 71.872258 71.872258 0 0 0-31.775104-6.884605 90.265882 90.265882 0 0 0-34.044754 6.884605 188.797074 188.797074 0 0 0-27.235803 18.34634 191.463913 191.463913 0 0 0-18.157202 27.519509 178.621476 178.621476 0 0 0-4.539301 34.394659 92.828696 92.828696 0 0 0 6.808951 34.394658 82.61527 82.61527 0 0 0 18.157202 27.519509 81.641211 81.641211 0 0 0 27.235803 18.34634 132.906937 132.906937 0 0 0 31.775104 4.586585 90.265882 90.265882 0 0 0 34.044754-6.884606 81.499358 81.499358 0 0 0 27.235803-18.346339 82.426132 82.426132 0 0 0 18.157202-27.51951 136.538377 136.538377 0 0 0 4.539301-32.096637 92.790868 92.790868 0 0 0-6.808951-34.394659z m-91.069717-211.399008a219.163103 219.163103 0 0 1 57.497807 31.046924c-6.525245-0.482301-13.050489-1.002429-19.764871-1.002428a266.570423 266.570423 0 0 0-139.110647 39.264949c-43.785336-69.148678-99.486336-126.72214-165.306194-158.327019a301.494667 301.494667 0 0 0 89.462047-214.916966c0-32.976127-10.118857-70.188934-14.46902-96.053491a157.286763 157.286763 0 0 1 59.105476-9.977004c129.653771 0 226.303045 100.394197 226.303044 227.910714 0 61.69666-37.543798 140.491351-93.717642 182.054321z m-361.72551-78.88926c85.301022 29.382514 157.646124 100.186145 211.266612 186.300459a268.187549 268.187549 0 0 0-41.137411 330.385423H0C0 836.148613 125.398177 571.828927 301.201503 507.266834a277.587684 277.587684 0 0 1-111.023725-224.893971C190.177778 128.99179 311.225792 0.028371 463.954341 0.028371c149.986055 0 278.221295 128.859394 278.221295 282.344492a260.272144 260.272144 0 0 1-123.885077 224.8656z" p-id="11123"></path></svg>